<svg width="16" height="16" viewBox="0 0 16 17" fill="none" xmlns="http://www.w3.org/2000/svg">
  <path d="M10.0762 3.05273C10.2298 3.06648 10.3762 3.12497 10.4971 3.2207L10.5557 3.27246L10.5576 3.27344H10.5566L15.2236 7.94043L15.2764 7.99805C15.3918 8.13893 15.4561 8.31625 15.4561 8.5C15.456 8.68376 15.3919 8.86107 15.2764 9.00195L15.2236 9.05957L10.5566 13.7266C10.484 13.8013 10.3975 13.8612 10.3018 13.9023C10.2292 13.9335 10.1524 13.9535 10.0742 13.9619L9.99609 13.9668C9.89098 13.9677 9.78675 13.947 9.68945 13.9072C9.61636 13.8773 9.54816 13.837 9.4873 13.7871L9.42969 13.7344C9.37398 13.6787 9.32684 13.6152 9.29004 13.5459L9.25684 13.4746C9.21704 13.3773 9.19636 13.2731 9.19727 13.168L9.20215 13.0898C9.21059 13.0116 9.23055 12.9349 9.26172 12.8623L9.29688 12.792C9.33457 12.7238 9.38141 12.6609 9.4375 12.6064L12.7529 9.29199H1.33105C1.14736 9.29199 0.969968 9.22771 0.829102 9.1123L0.770508 9.05957C0.622241 8.91115 0.539077 8.7098 0.539062 8.5C0.539063 8.2902 0.622262 8.08886 0.770508 7.94043L0.829102 7.8877C0.969976 7.77227 1.14733 7.70801 1.33105 7.70801H12.7529L9.43652 4.3916C9.2924 4.24238 9.21216 4.0424 9.21387 3.83496L9.21875 3.75684C9.23799 3.57795 9.317 3.40957 9.44531 3.28125L9.50293 3.22949C9.64212 3.11516 9.81737 3.05138 9.99902 3.0498L10.0762 3.05273Z" fill="#2ecc71" stroke="#2ecc71" stroke-width="0.25"/>
</svg>
