<svg viewBox="0 0 14 14" fill="none" xmlns="http://www.w3.org/2000/svg">
<path fill-rule="evenodd" clip-rule="evenodd" d="M11.5507 5.96267C11.6265 6.29634 11.6667 6.64342 11.6667 6.99984C11.6667 9.57525 9.5755 11.6665 7.00008 11.6665C4.42466 11.6665 2.33341 9.57525 2.33341 6.99984C2.33341 4.42442 4.42466 2.33317 7.00008 2.33317C7.5385 2.33317 8.05533 2.42417 8.53658 2.59217C8.8405 2.69834 9.173 2.53792 9.27917 2.234C9.38533 1.9295 9.22492 1.597 8.921 1.49084C8.319 1.28084 7.67267 1.1665 7.00008 1.1665C3.78066 1.1665 1.16675 3.78042 1.16675 6.99984C1.16675 10.2193 3.78066 12.8332 7.00008 12.8332C10.2195 12.8332 12.8334 10.2193 12.8334 6.99984C12.8334 6.55475 12.7832 6.12075 12.6887 5.70367C12.617 5.38984 12.3043 5.19325 11.9905 5.26442C11.6767 5.33559 11.4795 5.64825 11.5507 5.96267ZM6.41675 7.34167L11.2543 2.50409C11.4818 2.27659 11.8517 2.27659 12.0792 2.50409C12.3067 2.73159 12.3067 3.10142 12.0792 3.32892L6.82916 8.57892C6.60167 8.807 6.23183 8.807 6.00433 8.57892L4.25433 6.82892C4.02683 6.60142 4.02683 6.23159 4.25433 6.00409C4.48183 5.77659 4.85166 5.77659 5.07916 6.00409L6.41675 7.34167Z" fill="white"/>
</svg>
