<svg width="24" height="24" viewBox="0 0 20 21" fill="none" xmlns="http://www.w3.org/2000/svg">
                            <path d="M14.1641 13.0843C13.6414 12.5683 12.9888 12.5683 12.4694 13.0843C12.0732 13.4772 11.677 13.8701 11.2874 14.2696C11.1809 14.3795 11.091 14.4028 10.9612 14.3295C10.7048 14.1897 10.4318 14.0765 10.1854 13.9233C9.03673 13.2009 8.07452 12.2719 7.22218 11.2265C6.79934 10.7071 6.42312 10.1511 6.16009 9.52515C6.10682 9.39863 6.11681 9.31539 6.22002 9.21218C6.61622 8.82929 7.00244 8.43642 7.39198 8.04354C7.93469 7.49751 7.93469 6.85826 7.38866 6.3089C7.07902 5.99593 6.76938 5.68962 6.45974 5.37665C6.14011 5.05703 5.82381 4.73407 5.50086 4.41777C4.97813 3.90837 4.32556 3.90837 3.80617 4.4211C3.40663 4.81398 3.02375 5.21684 2.61756 5.60306C2.24133 5.95931 2.05155 6.39546 2.0116 6.90487C1.94834 7.7339 2.15143 8.51632 2.43776 9.27877C3.02375 10.8569 3.91604 12.2586 4.99811 13.5438C6.45974 15.2818 8.20437 16.6568 10.2453 17.649C11.1643 18.0951 12.1165 18.4381 13.1519 18.4947C13.8644 18.5346 14.4837 18.3548 14.9798 17.7988C15.3194 17.4193 15.7023 17.073 16.0619 16.7101C16.5946 16.1707 16.5979 15.5182 16.0685 14.9854C15.4359 14.3495 14.8 13.7169 14.1641 13.0843Z" fill="#2ecc71" />
                            <path d="M13.5271 10.4308L14.7557 10.221C14.5625 9.09233 14.0298 8.07019 13.2208 7.2578C12.3651 6.40213 11.283 5.86276 10.0911 5.69629L9.91797 6.93151C10.8402 7.06136 11.6792 7.47754 12.3418 8.1401C12.9677 8.76604 13.3773 9.55845 13.5271 10.4308Z" fill="#2ecc71" />
                            <path d="M15.4492 5.09031C14.0309 3.67197 12.2363 2.77634 10.2553 2.5L10.0822 3.73523C11.7935 3.97495 13.345 4.75071 14.5703 5.97262C15.7322 7.13459 16.4947 8.60288 16.771 10.2177L17.9996 10.0079C17.6766 8.13676 16.7943 6.43874 15.4492 5.09031Z" fill="#2ecc71" />
                          </svg>